{
    "asset" : {
        "generator" : "Khronos glTF Blender I/O v1.5.17",
        "version" : "2.0"
    },
    "extensionsUsed" : [
        "KHR_lights_punctual"
    ],
    "extensionsRequired" : [
        "KHR_lights_punctual"
    ],
    "extensions" : {
        "KHR_lights_punctual" : {
            "lights" : [
                {
                    "color" : [
                        1,
                        1,
                        1
                    ],
                    "intensity" : 1,
                    "type" : "directional",
                    "name" : "Sun"
                },
                {
                    "color" : [
                        1,
                        1,
                        1
                    ],
                    "intensity" : 2000,
                    "spot" : {
                        "innerConeAngle" : 0.3337942263919169,
                        "outerConeAngle" : 0.39269909262657166
                    },
                    "type" : "spot",
                    "name" : "Sun.001"
                },
                {
                    "color" : [
                        1,
                        1,
                        1
                    ],
                    "intensity" : 1000,
                    "spot" : {
                        "innerConeAngle" : 0.3337942263919169,
                        "outerConeAngle" : 0.39269909262657166
                    },
                    "type" : "spot",
                    "name" : "Point"
                }
            ]
        }
    },
    "scene" : 0,
    "scenes" : [
        {
            "extras" : {
                "svg_export" : {
                    "use_svg_export" : 1,
                    "split_at_invisible" : 1
                },
                "glTF2ExportSettings" : {
                    "export_extras" : 1,
                    "export_format" : "GLTF_SEPARATE",
                    "export_lights" : 1,
                    "export_texture_dir" : ""
                }
            },
            "name" : "Scene",
            "nodes" : [
                0,
                1,
                2,
                3,
                4,
                5,
                6,
                7,
                8,
                9,
                11,
                13,
                15
            ]
        }
    ],
    "nodes" : [
        {
            "mesh" : 0,
            "name" : "Cube",
            "rotation" : [
                0,
                0.1677737683057785,
                0,
                0.9858255386352539
            ],
            "scale" : [
                0.6227161288261414,
                0.6227161288261414,
                0.6227161288261414
            ],
            "translation" : [
                1.2408177852630615,
                0.624254584312439,
                -0.2404104471206665
            ]
        },
        {
            "name" : "Camera",
            "rotation" : [
                0.3855152428150177,
                0.6011052131652832,
                -0.40631064772605896,
                0.5700545310974121
            ],
            "translation" : [
                11.422398567199707,
                6.298183441162109,
                0.6628124117851257
            ]
        },
        {
            "mesh" : 1,
            "name" : "Plane",
            "scale" : [
                8.181153297424316,
                8.181153297424316,
                38.83247375488281
            ],
            "translation" : [
                -4.061634063720703,
                0,
                0
            ]
        },
        {
            "mesh" : 2,
            "name" : "Cube.001",
            "rotation" : [
                0,
                -0.019088096916675568,
                0,
                0.9998177886009216
            ],
            "scale" : [
                0.9418559670448303,
                0.9418561458587646,
                0.9418559670448303
            ],
            "translation" : [
                -4.6942877769470215,
                0.906194269657135,
                4.350594520568848
            ]
        },
        {
            "mesh" : 3,
            "name" : "Cube.002",
            "rotation" : [
                0,
                0.1677737683057785,
                0,
                0.9858255386352539
            ],
            "scale" : [
                0.4362078607082367,
                0.4362078309059143,
                0.4362078607082367
            ],
            "translation" : [
                -1.1346732378005981,
                0.4007568657398224,
                -2.8459033966064453
            ]
        },
        {
            "mesh" : 4,
            "name" : "Cube.003",
            "rotation" : [
                0,
                -0.6768571734428406,
                0,
                0.7361144423484802
            ],
            "scale" : [
                0.8520897030830383,
                0.8520897626876831,
                0.8520897030830383
            ],
            "translation" : [
                -4.789664268493652,
                0.8498523831367493,
                -2.0500752925872803
            ]
        },
        {
            "mesh" : 5,
            "name" : "Cube.004",
            "rotation" : [
                0,
                -0.2809167206287384,
                0,
                0.959732174873352
            ],
            "scale" : [
                0.538312554359436,
                0.538312554359436,
                0.538312554359436
            ],
            "translation" : [
                -1.4038538932800293,
                0.5533204674720764,
                5.597439289093018
            ]
        },
        {
            "mesh" : 6,
            "name" : "Cube.005",
            "rotation" : [
                0,
                -0.3191170394420624,
                0,
                0.9477153420448303
            ],
            "scale" : [
                0.6227161288261414,
                0.6227161288261414,
                0.6227161288261414
            ],
            "translation" : [
                1.0594267845153809,
                0.6231662631034851,
                3.165792942047119
            ]
        },
        {
            "mesh" : 7,
            "name" : "Cube.006",
            "rotation" : [
                0,
                0.1677737683057785,
                0,
                0.9858255386352539
            ],
            "scale" : [
                0.8869975805282593,
                0.8869975805282593,
                0.8869975805282593
            ],
            "translation" : [
                -6.7978034019470215,
                0.8642690777778625,
                1.1635067462921143
            ]
        },
        {
            "mesh" : 8,
            "name" : "Cube.007",
            "rotation" : [
                0,
                -0.2099585235118866,
                0,
                0.9777103066444397
            ],
            "scale" : [
                0.8869975805282593,
                0.8869975805282593,
                0.8869975805282593
            ],
            "translation" : [
                -2.598130702972412,
                0.9004423022270203,
                1.4519975185394287
            ]
        },
        {
            "extensions" : {
                "KHR_lights_punctual" : {
                    "light" : 0
                }
            },
            "name" : "Sun_Orientation",
            "rotation" : [
                -0.7071067690849304,
                0,
                0,
                0.7071067690849304
            ]
        },
        {
            "children" : [
                10
            ],
            "name" : "Sun",
            "rotation" : [
                0.3701528012752533,
                -0.04295339062809944,
                -0.33114591240882874,
                0.8668819665908813
            ],
            "translation" : [
                5.733948707580566,
                8.440601348876953,
                12.06297779083252
            ]
        },
        {
            "extensions" : {
                "KHR_lights_punctual" : {
                    "light" : 1
                }
            },
            "name" : "Sun.001_Orientation",
            "rotation" : [
                -0.7071067690849304,
                0,
                0,
                0.7071067690849304
            ]
        },
        {
            "children" : [
                12
            ],
            "name" : "Sun.001",
            "rotation" : [
                -0.3003711402416229,
                0.24496658146381378,
                -0.43335816264152527,
                0.813615083694458
            ],
            "translation" : [
                4.14881706237793,
                5.388489723205566,
                -6.5243072509765625
            ]
        },
        {
            "extensions" : {
                "KHR_lights_punctual" : {
                    "light" : 2
                }
            },
            "name" : "Point_Orientation",
            "rotation" : [
                -0.7071067690849304,
                0,
                0,
                0.7071067690849304
            ]
        },
        {
            "children" : [
                14
            ],
            "name" : "Point",
            "rotation" : [
                -0.6979283094406128,
                0.16108828783035278,
                0.19792552292346954,
                0.6691578030586243
            ],
            "translation" : [
                -7.778738498687744,
                2.1969478130340576,
                -7.993319988250732
            ]
        }
    ],
    "materials" : [
        {
            "doubleSided" : true,
            "name" : "Light Blue",
            "pbrMetallicRoughness" : {
                "baseColorFactor" : [
                    0.07421350479125977,
                    0.327778160572052,
                    0.7681513428688049,
                    1
                ],
                "metallicFactor" : 0,
                "roughnessFactor" : 0.5
            }
        },
        {
            "doubleSided" : true,
            "name" : "Background",
            "pbrMetallicRoughness" : {
                "baseColorFactor" : [
                    0.012983032502233982,
                    0.01599629409611225,
                    0.02121901512145996,
                    1
                ],
                "metallicFactor" : 0,
                "roughnessFactor" : 0.5
            }
        },
        {
            "doubleSided" : true,
            "name" : "Deeper Blue",
            "pbrMetallicRoughness" : {
                "baseColorFactor" : [
                    0.0033465176820755005,
                    0.084376260638237,
                    0.3049874007701874,
                    1
                ],
                "metallicFactor" : 0,
                "roughnessFactor" : 0.5
            }
        },
        {
            "doubleSided" : true,
            "name" : "Cyan",
            "pbrMetallicRoughness" : {
                "baseColorFactor" : [
                    0.005181506276130676,
                    0.14126335084438324,
                    0.2501583397388458,
                    1
                ],
                "metallicFactor" : 0,
                "roughnessFactor" : 0.5
            }
        },
        {
            "doubleSided" : true,
            "name" : "Blue",
            "pbrMetallicRoughness" : {
                "baseColorFactor" : [
                    0.017641963437199593,
                    0.02121901512145996,
                    0.029556848108768463,
                    1
                ],
                "metallicFactor" : 0,
                "roughnessFactor" : 0.4000000059604645
            }
        }
    ],
    "meshes" : [
        {
            "name" : "Cube",
            "primitives" : [
                {
                    "attributes" : {
                        "POSITION" : 0,
                        "NORMAL" : 1,
                        "TEXCOORD_0" : 2
                    },
                    "indices" : 3,
                    "material" : 0
                }
            ]
        },
        {
            "name" : "Plane",
            "primitives" : [
                {
                    "attributes" : {
                        "POSITION" : 4,
                        "NORMAL" : 5,
                        "TEXCOORD_0" : 6
                    },
                    "indices" : 7,
                    "material" : 1
                }
            ]
        },
        {
            "name" : "Cube.001",
            "primitives" : [
                {
                    "attributes" : {
                        "POSITION" : 8,
                        "NORMAL" : 9,
                        "TEXCOORD_0" : 10
                    },
                    "indices" : 11,
                    "material" : 2
                }
            ]
        },
        {
            "name" : "Cube.002",
            "primitives" : [
                {
                    "attributes" : {
                        "POSITION" : 12,
                        "NORMAL" : 13,
                        "TEXCOORD_0" : 14
                    },
                    "indices" : 3,
                    "material" : 3
                }
            ]
        },
        {
            "name" : "Cube.003",
            "primitives" : [
                {
                    "attributes" : {
                        "POSITION" : 15,
                        "NORMAL" : 16,
                        "TEXCOORD_0" : 17
                    },
                    "indices" : 3,
                    "material" : 2
                }
            ]
        },
        {
            "name" : "Cube.004",
            "primitives" : [
                {
                    "attributes" : {
                        "POSITION" : 18,
                        "NORMAL" : 19,
                        "TEXCOORD_0" : 20
                    },
                    "indices" : 3,
                    "material" : 3
                }
            ]
        },
        {
            "name" : "Cube.006",
            "primitives" : [
                {
                    "attributes" : {
                        "POSITION" : 21,
                        "NORMAL" : 22,
                        "TEXCOORD_0" : 23
                    },
                    "indices" : 3,
                    "material" : 0
                }
            ]
        },
        {
            "name" : "Cube.007",
            "primitives" : [
                {
                    "attributes" : {
                        "POSITION" : 24,
                        "NORMAL" : 25,
                        "TEXCOORD_0" : 26
                    },
                    "indices" : 3,
                    "material" : 4
                }
            ]
        },
        {
            "name" : "Cube.008",
            "primitives" : [
                {
                    "attributes" : {
                        "POSITION" : 27,
                        "NORMAL" : 28,
                        "TEXCOORD_0" : 29
                    },
                    "indices" : 3,
                    "material" : 4
                }
            ]
        }
    ],
    "accessors" : [
        {
            "bufferView" : 0,
            "componentType" : 5126,
            "count" : 24,
            "max" : [
                1,
                1,
                1
            ],
            "min" : [
                -1,
                -1,
                -1
            ],
            "type" : "VEC3"
        },
        {
            "bufferView" : 1,
            "componentType" : 5126,
            "count" : 24,
            "type" : "VEC3"
        },
        {
            "bufferView" : 2,
            "componentType" : 5126,
            "count" : 24,
            "type" : "VEC2"
        },
        {
            "bufferView" : 3,
            "componentType" : 5123,
            "count" : 36,
            "type" : "SCALAR"
        },
        {
            "bufferView" : 4,
            "componentType" : 5126,
            "count" : 10,
            "max" : [
                2.1004798412323,
                1.339508295059204,
                1
            ],
            "min" : [
                -0.8762995004653931,
                0,
                -1
            ],
            "type" : "VEC3"
        },
        {
            "bufferView" : 5,
            "componentType" : 5126,
            "count" : 10,
            "type" : "VEC3"
        },
        {
            "bufferView" : 6,
            "componentType" : 5126,
            "count" : 10,
            "type" : "VEC2"
        },
        {
            "bufferView" : 7,
            "componentType" : 5123,
            "count" : 24,
            "type" : "SCALAR"
        },
        {
            "bufferView" : 8,
            "componentType" : 5126,
            "count" : 22,
            "max" : [
                0.9999995231628418,
                1,
                1
            ],
            "min" : [
                -1,
                -1,
                -1
            ],
            "type" : "VEC3"
        },
        {
            "bufferView" : 9,
            "componentType" : 5126,
            "count" : 22,
            "type" : "VEC3"
        },
        {
            "bufferView" : 10,
            "componentType" : 5126,
            "count" : 22,
            "type" : "VEC2"
        },
        {
            "bufferView" : 11,
            "componentType" : 5123,
            "count" : 36,
            "type" : "SCALAR"
        },
        {
            "bufferView" : 12,
            "componentType" : 5126,
            "count" : 24,
            "max" : [
                1,
                2.286917209625244,
                1
            ],
            "min" : [
                -1,
                -1,
                -1
            ],
            "type" : "VEC3"
        },
        {
            "bufferView" : 13,
            "componentType" : 5126,
            "count" : 24,
            "type" : "VEC3"
        },
        {
            "bufferView" : 14,
            "componentType" : 5126,
            "count" : 24,
            "type" : "VEC2"
        },
        {
            "bufferView" : 15,
            "componentType" : 5126,
            "count" : 24,
            "max" : [
                1,
                1,
                1
            ],
            "min" : [
                -1,
                -1,
                -1
            ],
            "type" : "VEC3"
        },
        {
            "bufferView" : 16,
            "componentType" : 5126,
            "count" : 24,
            "type" : "VEC3"
        },
        {
            "bufferView" : 17,
            "componentType" : 5126,
            "count" : 24,
            "type" : "VEC2"
        },
        {
            "bufferView" : 18,
            "componentType" : 5126,
            "count" : 24,
            "max" : [
                1,
                1,
                1
            ],
            "min" : [
                -1,
                -1,
                -1
            ],
            "type" : "VEC3"
        },
        {
            "bufferView" : 19,
            "componentType" : 5126,
            "count" : 24,
            "type" : "VEC3"
        },
        {
            "bufferView" : 20,
            "componentType" : 5126,
            "count" : 24,
            "type" : "VEC2"
        },
        {
            "bufferView" : 21,
            "componentType" : 5126,
            "count" : 24,
            "max" : [
                1,
                1,
                1
            ],
            "min" : [
                -1,
                -1,
                -1
            ],
            "type" : "VEC3"
        },
        {
            "bufferView" : 22,
            "componentType" : 5126,
            "count" : 24,
            "type" : "VEC3"
        },
        {
            "bufferView" : 23,
            "componentType" : 5126,
            "count" : 24,
            "type" : "VEC2"
        },
        {
            "bufferView" : 24,
            "componentType" : 5126,
            "count" : 24,
            "max" : [
                1,
                1,
                1
            ],
            "min" : [
                -1,
                -1,
                -1
            ],
            "type" : "VEC3"
        },
        {
            "bufferView" : 25,
            "componentType" : 5126,
            "count" : 24,
            "type" : "VEC3"
        },
        {
            "bufferView" : 26,
            "componentType" : 5126,
            "count" : 24,
            "type" : "VEC2"
        },
        {
            "bufferView" : 27,
            "componentType" : 5126,
            "count" : 24,
            "max" : [
                1,
                1,
                1
            ],
            "min" : [
                -1,
                -1,
                -1
            ],
            "type" : "VEC3"
        },
        {
            "bufferView" : 28,
            "componentType" : 5126,
            "count" : 24,
            "type" : "VEC3"
        },
        {
            "bufferView" : 29,
            "componentType" : 5126,
            "count" : 24,
            "type" : "VEC2"
        }
    ],
    "bufferViews" : [
        {
            "buffer" : 0,
            "byteLength" : 288,
            "byteOffset" : 0
        },
        {
            "buffer" : 0,
            "byteLength" : 288,
            "byteOffset" : 288
        },
        {
            "buffer" : 0,
            "byteLength" : 192,
            "byteOffset" : 576
        },
        {
            "buffer" : 0,
            "byteLength" : 72,
            "byteOffset" : 768
        },
        {
            "buffer" : 0,
            "byteLength" : 120,
            "byteOffset" : 840
        },
        {
            "buffer" : 0,
            "byteLength" : 120,
            "byteOffset" : 960
        },
        {
            "buffer" : 0,
            "byteLength" : 80,
            "byteOffset" : 1080
        },
        {
            "buffer" : 0,
            "byteLength" : 48,
            "byteOffset" : 1160
        },
        {
            "buffer" : 0,
            "byteLength" : 264,
            "byteOffset" : 1208
        },
        {
            "buffer" : 0,
            "byteLength" : 264,
            "byteOffset" : 1472
        },
        {
            "buffer" : 0,
            "byteLength" : 176,
            "byteOffset" : 1736
        },
        {
            "buffer" : 0,
            "byteLength" : 72,
            "byteOffset" : 1912
        },
        {
            "buffer" : 0,
            "byteLength" : 288,
            "byteOffset" : 1984
        },
        {
            "buffer" : 0,
            "byteLength" : 288,
            "byteOffset" : 2272
        },
        {
            "buffer" : 0,
            "byteLength" : 192,
            "byteOffset" : 2560
        },
        {
            "buffer" : 0,
            "byteLength" : 288,
            "byteOffset" : 2752
        },
        {
            "buffer" : 0,
            "byteLength" : 288,
            "byteOffset" : 3040
        },
        {
            "buffer" : 0,
            "byteLength" : 192,
            "byteOffset" : 3328
        },
        {
            "buffer" : 0,
            "byteLength" : 288,
            "byteOffset" : 3520
        },
        {
            "buffer" : 0,
            "byteLength" : 288,
            "byteOffset" : 3808
        },
        {
            "buffer" : 0,
            "byteLength" : 192,
            "byteOffset" : 4096
        },
        {
            "buffer" : 0,
            "byteLength" : 288,
            "byteOffset" : 4288
        },
        {
            "buffer" : 0,
            "byteLength" : 288,
            "byteOffset" : 4576
        },
        {
            "buffer" : 0,
            "byteLength" : 192,
            "byteOffset" : 4864
        },
        {
            "buffer" : 0,
            "byteLength" : 288,
            "byteOffset" : 5056
        },
        {
            "buffer" : 0,
            "byteLength" : 288,
            "byteOffset" : 5344
        },
        {
            "buffer" : 0,
            "byteLength" : 192,
            "byteOffset" : 5632
        },
        {
            "buffer" : 0,
            "byteLength" : 288,
            "byteOffset" : 5824
        },
        {
            "buffer" : 0,
            "byteLength" : 288,
            "byteOffset" : 6112
        },
        {
            "buffer" : 0,
            "byteLength" : 192,
            "byteOffset" : 6400
        }
    ],
    "buffers" : [
        {
            "byteLength" : 6592,
            "uri" : "Anshul.bin"
        }
    ]
}
