{
    "asset" : {
        "generator" : "Khronos glTF Blender I/O v1.5.17",
        "version" : "2.0"
    },
    "scene" : 0,
    "scenes" : [
        {
            "extras" : {
                "svg_export" : {
                    "use_svg_export" : 1,
                    "split_at_invisible" : 1
                }
            },
            "name" : "Scene",
            "nodes" : [
                0,
                1,
                2,
                3,
                4,
                5,
                6,
                7,
                8,
                9
            ]
        }
    ],
    "nodes" : [
        {
            "mesh" : 0,
            "name" : "Cube",
            "rotation" : [
                0,
                0.1677737683057785,
                0,
                0.9858255386352539
            ],
            "scale" : [
                0.6227161288261414,
                0.6227161288261414,
                0.6227161288261414
            ],
            "translation" : [
                1.2408177852630615,
                0.624254584312439,
                -0.2404104471206665
            ]
        },
        {
            "name" : "Camera",
            "rotation" : [
                0.3855152428150177,
                0.6011052131652832,
                -0.40631064772605896,
                0.5700545310974121
            ],
            "translation" : [
                11.422398567199707,
                6.298183441162109,
                0.6628124117851257
            ]
        },
        {
            "mesh" : 1,
            "name" : "Cube.001",
            "rotation" : [
                0,
                -0.019088096916675568,
                0,
                0.9998177886009216
            ],
            "scale" : [
                0.9418559670448303,
                0.9418561458587646,
                0.9418559670448303
            ],
            "translation" : [
                -4.6942877769470215,
                0.906194269657135,
                4.350594520568848
            ]
        },
        {
            "mesh" : 2,
            "name" : "Cube.002",
            "rotation" : [
                0,
                0.1677737683057785,
                0,
                0.9858255386352539
            ],
            "scale" : [
                0.4362078607082367,
                0.4362078309059143,
                0.4362078607082367
            ],
            "translation" : [
                -1.1346732378005981,
                0.4007568657398224,
                -2.8459033966064453
            ]
        },
        {
            "mesh" : 3,
            "name" : "Cube.003",
            "rotation" : [
                0,
                -0.6768571734428406,
                0,
                0.7361144423484802
            ],
            "scale" : [
                0.8520897030830383,
                0.8520897626876831,
                0.8520897030830383
            ],
            "translation" : [
                -4.789664268493652,
                0.8498523831367493,
                -2.0500752925872803
            ]
        },
        {
            "mesh" : 4,
            "name" : "Cube.004",
            "rotation" : [
                0,
                -0.2809167206287384,
                0,
                0.959732174873352
            ],
            "scale" : [
                0.538312554359436,
                0.538312554359436,
                0.538312554359436
            ],
            "translation" : [
                -1.4038538932800293,
                0.5533204674720764,
                5.597439289093018
            ]
        },
        {
            "mesh" : 5,
            "name" : "Cube.005",
            "rotation" : [
                0,
                -0.3191170394420624,
                0,
                0.9477153420448303
            ],
            "scale" : [
                0.6227161288261414,
                0.6227161288261414,
                0.6227161288261414
            ],
            "translation" : [
                1.0594267845153809,
                0.6231662631034851,
                3.165792942047119
            ]
        },
        {
            "mesh" : 6,
            "name" : "Cube.006",
            "rotation" : [
                0,
                0.1677737683057785,
                0,
                0.9858255386352539
            ],
            "scale" : [
                0.8869975805282593,
                0.8869975805282593,
                0.8869975805282593
            ],
            "translation" : [
                -6.7978034019470215,
                0.8642690777778625,
                1.1635067462921143
            ]
        },
        {
            "mesh" : 7,
            "name" : "Cube.007",
            "rotation" : [
                0,
                -0.2099585235118866,
                0,
                0.9777103066444397
            ],
            "scale" : [
                0.8869975805282593,
                0.8869975805282593,
                0.8869975805282593
            ],
            "translation" : [
                -2.598130702972412,
                0.9004423022270203,
                1.4519975185394287
            ]
        },
        {
            "mesh" : 8,
            "name" : "Cube.008",
            "scale" : [
                11.546630859375,
                6.936187744140625,
                10.141575813293457
            ],
            "translation" : [
                0.37862586975097656,
                3.272955894470215,
                1.474868655204773
            ]
        }
    ],
    "materials" : [
        {
            "doubleSided" : true,
            "name" : "Light Blue",
            "pbrMetallicRoughness" : {
                "baseColorFactor" : [
                    0.07421350479125977,
                    0.327778160572052,
                    0.7681513428688049,
                    1
                ],
                "metallicFactor" : 0,
                "roughnessFactor" : 0.5
            }
        },
        {
            "doubleSided" : true,
            "name" : "Deeper Blue",
            "pbrMetallicRoughness" : {
                "baseColorFactor" : [
                    0.0033465176820755005,
                    0.084376260638237,
                    0.3049874007701874,
                    1
                ],
                "metallicFactor" : 0,
                "roughnessFactor" : 0.5
            }
        },
        {
            "doubleSided" : true,
            "name" : "Cyan",
            "pbrMetallicRoughness" : {
                "baseColorFactor" : [
                    0.005181506276130676,
                    0.14126335084438324,
                    0.2501583397388458,
                    1
                ],
                "metallicFactor" : 0,
                "roughnessFactor" : 0.5
            }
        },
        {
            "doubleSided" : true,
            "name" : "Blue",
            "pbrMetallicRoughness" : {
                "baseColorFactor" : [
                    0.017641963437199593,
                    0.02121901512145996,
                    0.029556848108768463,
                    1
                ],
                "metallicFactor" : 0,
                "roughnessFactor" : 0.4000000059604645
            }
        },
        {
            "doubleSided" : true,
            "name" : "Material",
            "pbrMetallicRoughness" : {}
        }
    ],
    "meshes" : [
        {
            "name" : "Cube",
            "primitives" : [
                {
                    "attributes" : {
                        "POSITION" : 0,
                        "NORMAL" : 1,
                        "TEXCOORD_0" : 2
                    },
                    "indices" : 3,
                    "material" : 0
                }
            ]
        },
        {
            "name" : "Cube.001",
            "primitives" : [
                {
                    "attributes" : {
                        "POSITION" : 4,
                        "NORMAL" : 5,
                        "TEXCOORD_0" : 6
                    },
                    "indices" : 7,
                    "material" : 1
                }
            ]
        },
        {
            "name" : "Cube.002",
            "primitives" : [
                {
                    "attributes" : {
                        "POSITION" : 8,
                        "NORMAL" : 9,
                        "TEXCOORD_0" : 10
                    },
                    "indices" : 3,
                    "material" : 2
                }
            ]
        },
        {
            "name" : "Cube.003",
            "primitives" : [
                {
                    "attributes" : {
                        "POSITION" : 11,
                        "NORMAL" : 12,
                        "TEXCOORD_0" : 13
                    },
                    "indices" : 3,
                    "material" : 1
                }
            ]
        },
        {
            "name" : "Cube.004",
            "primitives" : [
                {
                    "attributes" : {
                        "POSITION" : 14,
                        "NORMAL" : 15,
                        "TEXCOORD_0" : 16
                    },
                    "indices" : 3,
                    "material" : 2
                }
            ]
        },
        {
            "name" : "Cube.006",
            "primitives" : [
                {
                    "attributes" : {
                        "POSITION" : 17,
                        "NORMAL" : 18,
                        "TEXCOORD_0" : 19
                    },
                    "indices" : 3,
                    "material" : 0
                }
            ]
        },
        {
            "name" : "Cube.007",
            "primitives" : [
                {
                    "attributes" : {
                        "POSITION" : 20,
                        "NORMAL" : 21,
                        "TEXCOORD_0" : 22
                    },
                    "indices" : 3,
                    "material" : 3
                }
            ]
        },
        {
            "name" : "Cube.008",
            "primitives" : [
                {
                    "attributes" : {
                        "POSITION" : 23,
                        "NORMAL" : 24,
                        "TEXCOORD_0" : 25
                    },
                    "indices" : 3,
                    "material" : 3
                }
            ]
        },
        {
            "name" : "Cube.009",
            "primitives" : [
                {
                    "attributes" : {
                        "POSITION" : 26,
                        "NORMAL" : 27,
                        "TEXCOORD_0" : 28
                    },
                    "indices" : 29,
                    "material" : 4
                }
            ]
        }
    ],
    "accessors" : [
        {
            "bufferView" : 0,
            "componentType" : 5126,
            "count" : 24,
            "max" : [
                1,
                1,
                1
            ],
            "min" : [
                -1,
                -1,
                -1
            ],
            "type" : "VEC3"
        },
        {
            "bufferView" : 1,
            "componentType" : 5126,
            "count" : 24,
            "type" : "VEC3"
        },
        {
            "bufferView" : 2,
            "componentType" : 5126,
            "count" : 24,
            "type" : "VEC2"
        },
        {
            "bufferView" : 3,
            "componentType" : 5123,
            "count" : 36,
            "type" : "SCALAR"
        },
        {
            "bufferView" : 4,
            "componentType" : 5126,
            "count" : 22,
            "max" : [
                0.9999995231628418,
                1,
                1
            ],
            "min" : [
                -1,
                -1,
                -1
            ],
            "type" : "VEC3"
        },
        {
            "bufferView" : 5,
            "componentType" : 5126,
            "count" : 22,
            "type" : "VEC3"
        },
        {
            "bufferView" : 6,
            "componentType" : 5126,
            "count" : 22,
            "type" : "VEC2"
        },
        {
            "bufferView" : 7,
            "componentType" : 5123,
            "count" : 36,
            "type" : "SCALAR"
        },
        {
            "bufferView" : 8,
            "componentType" : 5126,
            "count" : 24,
            "max" : [
                1,
                2.286917209625244,
                1
            ],
            "min" : [
                -1,
                -1,
                -1
            ],
            "type" : "VEC3"
        },
        {
            "bufferView" : 9,
            "componentType" : 5126,
            "count" : 24,
            "type" : "VEC3"
        },
        {
            "bufferView" : 10,
            "componentType" : 5126,
            "count" : 24,
            "type" : "VEC2"
        },
        {
            "bufferView" : 11,
            "componentType" : 5126,
            "count" : 24,
            "max" : [
                1,
                1,
                1
            ],
            "min" : [
                -1,
                -1,
                -1
            ],
            "type" : "VEC3"
        },
        {
            "bufferView" : 12,
            "componentType" : 5126,
            "count" : 24,
            "type" : "VEC3"
        },
        {
            "bufferView" : 13,
            "componentType" : 5126,
            "count" : 24,
            "type" : "VEC2"
        },
        {
            "bufferView" : 14,
            "componentType" : 5126,
            "count" : 24,
            "max" : [
                1,
                1,
                1
            ],
            "min" : [
                -1,
                -1,
                -1
            ],
            "type" : "VEC3"
        },
        {
            "bufferView" : 15,
            "componentType" : 5126,
            "count" : 24,
            "type" : "VEC3"
        },
        {
            "bufferView" : 16,
            "componentType" : 5126,
            "count" : 24,
            "type" : "VEC2"
        },
        {
            "bufferView" : 17,
            "componentType" : 5126,
            "count" : 24,
            "max" : [
                1,
                1,
                1
            ],
            "min" : [
                -1,
                -1,
                -1
            ],
            "type" : "VEC3"
        },
        {
            "bufferView" : 18,
            "componentType" : 5126,
            "count" : 24,
            "type" : "VEC3"
        },
        {
            "bufferView" : 19,
            "componentType" : 5126,
            "count" : 24,
            "type" : "VEC2"
        },
        {
            "bufferView" : 20,
            "componentType" : 5126,
            "count" : 24,
            "max" : [
                1,
                1,
                1
            ],
            "min" : [
                -1,
                -1,
                -1
            ],
            "type" : "VEC3"
        },
        {
            "bufferView" : 21,
            "componentType" : 5126,
            "count" : 24,
            "type" : "VEC3"
        },
        {
            "bufferView" : 22,
            "componentType" : 5126,
            "count" : 24,
            "type" : "VEC2"
        },
        {
            "bufferView" : 23,
            "componentType" : 5126,
            "count" : 24,
            "max" : [
                1,
                1,
                1
            ],
            "min" : [
                -1,
                -1,
                -1
            ],
            "type" : "VEC3"
        },
        {
            "bufferView" : 24,
            "componentType" : 5126,
            "count" : 24,
            "type" : "VEC3"
        },
        {
            "bufferView" : 25,
            "componentType" : 5126,
            "count" : 24,
            "type" : "VEC2"
        },
        {
            "bufferView" : 26,
            "componentType" : 5126,
            "count" : 24,
            "max" : [
                1,
                1,
                1
            ],
            "min" : [
                -1,
                -1,
                -1
            ],
            "type" : "VEC3"
        },
        {
            "bufferView" : 27,
            "componentType" : 5126,
            "count" : 24,
            "type" : "VEC3"
        },
        {
            "bufferView" : 28,
            "componentType" : 5126,
            "count" : 24,
            "type" : "VEC2"
        },
        {
            "bufferView" : 29,
            "componentType" : 5123,
            "count" : 36,
            "type" : "SCALAR"
        }
    ],
    "bufferViews" : [
        {
            "buffer" : 0,
            "byteLength" : 288,
            "byteOffset" : 0
        },
        {
            "buffer" : 0,
            "byteLength" : 288,
            "byteOffset" : 288
        },
        {
            "buffer" : 0,
            "byteLength" : 192,
            "byteOffset" : 576
        },
        {
            "buffer" : 0,
            "byteLength" : 72,
            "byteOffset" : 768
        },
        {
            "buffer" : 0,
            "byteLength" : 264,
            "byteOffset" : 840
        },
        {
            "buffer" : 0,
            "byteLength" : 264,
            "byteOffset" : 1104
        },
        {
            "buffer" : 0,
            "byteLength" : 176,
            "byteOffset" : 1368
        },
        {
            "buffer" : 0,
            "byteLength" : 72,
            "byteOffset" : 1544
        },
        {
            "buffer" : 0,
            "byteLength" : 288,
            "byteOffset" : 1616
        },
        {
            "buffer" : 0,
            "byteLength" : 288,
            "byteOffset" : 1904
        },
        {
            "buffer" : 0,
            "byteLength" : 192,
            "byteOffset" : 2192
        },
        {
            "buffer" : 0,
            "byteLength" : 288,
            "byteOffset" : 2384
        },
        {
            "buffer" : 0,
            "byteLength" : 288,
            "byteOffset" : 2672
        },
        {
            "buffer" : 0,
            "byteLength" : 192,
            "byteOffset" : 2960
        },
        {
            "buffer" : 0,
            "byteLength" : 288,
            "byteOffset" : 3152
        },
        {
            "buffer" : 0,
            "byteLength" : 288,
            "byteOffset" : 3440
        },
        {
            "buffer" : 0,
            "byteLength" : 192,
            "byteOffset" : 3728
        },
        {
            "buffer" : 0,
            "byteLength" : 288,
            "byteOffset" : 3920
        },
        {
            "buffer" : 0,
            "byteLength" : 288,
            "byteOffset" : 4208
        },
        {
            "buffer" : 0,
            "byteLength" : 192,
            "byteOffset" : 4496
        },
        {
            "buffer" : 0,
            "byteLength" : 288,
            "byteOffset" : 4688
        },
        {
            "buffer" : 0,
            "byteLength" : 288,
            "byteOffset" : 4976
        },
        {
            "buffer" : 0,
            "byteLength" : 192,
            "byteOffset" : 5264
        },
        {
            "buffer" : 0,
            "byteLength" : 288,
            "byteOffset" : 5456
        },
        {
            "buffer" : 0,
            "byteLength" : 288,
            "byteOffset" : 5744
        },
        {
            "buffer" : 0,
            "byteLength" : 192,
            "byteOffset" : 6032
        },
        {
            "buffer" : 0,
            "byteLength" : 288,
            "byteOffset" : 6224
        },
        {
            "buffer" : 0,
            "byteLength" : 288,
            "byteOffset" : 6512
        },
        {
            "buffer" : 0,
            "byteLength" : 192,
            "byteOffset" : 6800
        },
        {
            "buffer" : 0,
            "byteLength" : 72,
            "byteOffset" : 6992
        }
    ],
    "buffers" : [
        {
            "byteLength" : 7064,
            "uri" : "NEw.bin"
        }
    ]
}
