{
    "asset" : {
        "generator" : "Khronos glTF Blender I/O v1.5.17",
        "version" : "2.0"
    },
    "scene" : 0,
    "scenes" : [
        {
            "extras" : {
                "svg_export" : {
                    "use_svg_export" : 1,
                    "split_at_invisible" : 1
                }
            },
            "name" : "Scene",
            "nodes" : [
                0,
                8,
                9,
                10,
                11
            ]
        }
    ],
    "nodes" : [
        {
            "name" : "Camera",
            "rotation" : [
                0.3855152428150177,
                0.6011052131652832,
                -0.40631064772605896,
                0.5700545310974121
            ],
            "translation" : [
                11.422398567199707,
                6.298183441162109,
                0.6628124117851257
            ]
        },
        {
            "mesh" : 0,
            "name" : "Cube",
            "rotation" : [
                0,
                0.37101659178733826,
                0,
                0.9286262392997742
            ],
            "scale" : [
                0.7020496129989624,
                0.7020493149757385,
                0.7020496129989624
            ],
            "translation" : [
                3.1630945205688477,
                -0.31137382984161377,
                -3.5167007446289062
            ]
        },
        {
            "mesh" : 1,
            "name" : "Cube.001",
            "rotation" : [
                0,
                0.19125764071941376,
                0,
                0.9815399646759033
            ],
            "scale" : [
                1.0618475675582886,
                1.0618473291397095,
                1.0618475675582886
            ],
            "translation" : [
                -0.8132033348083496,
                0.006484627723693848,
                3.9499940872192383
            ]
        },
        {
            "mesh" : 2,
            "name" : "Cube.002",
            "rotation" : [
                0,
                0.37101656198501587,
                0,
                0.9286262392997742
            ],
            "scale" : [
                0.4917803406715393,
                0.4917801320552826,
                0.4917803406715393
            ],
            "translation" : [
                -0.4848973751068115,
                -0.5633448362350464,
                -5.095628261566162
            ]
        },
        {
            "mesh" : 3,
            "name" : "Cube.003",
            "rotation" : [
                0,
                -0.5072166919708252,
                0,
                0.8618185520172119
            ],
            "scale" : [
                0.9606451988220215,
                0.9606448411941528,
                0.9606451988220215
            ],
            "translation" : [
                -3.8738763332366943,
                -0.05703514814376831,
                -2.5857596397399902
            ]
        },
        {
            "mesh" : 4,
            "name" : "Cube.004",
            "rotation" : [
                0,
                -0.07315121591091156,
                0,
                0.9973208904266357
            ],
            "scale" : [
                0.6068931221961975,
                0.6068928241729736,
                0.6068931221961975
            ],
            "translation" : [
                3.1464850902557373,
                -0.3913448452949524,
                3.7087364196777344
            ]
        },
        {
            "mesh" : 5,
            "name" : "Cube.005",
            "rotation" : [
                0,
                -0.11302308738231659,
                0,
                0.993592381477356
            ],
            "scale" : [
                0.7020496129989624,
                0.7020493149757385,
                0.7020496129989624
            ],
            "translation" : [
                4.553225517272949,
                -0.3126007914543152,
                0.06884157657623291
            ]
        },
        {
            "mesh" : 6,
            "name" : "Cube.006",
            "rotation" : [
                0,
                0.37101656198501587,
                0,
                0.928626298904419
            ],
            "translation" : [
                -4.450802803039551,
                -0.04078179597854614,
                1.6472994089126587
            ]
        },
        {
            "children" : [
                1,
                2,
                3,
                4,
                5,
                6,
                7
            ],
            "mesh" : 7,
            "name" : "Cube.007",
            "rotation" : [
                0,
                -0.2099585235118866,
                0,
                0.9777103066444397
            ],
            "scale" : [
                0.8869975805282593,
                0.8869975805282593,
                0.8869975805282593
            ],
            "translation" : [
                -2.598130702972412,
                0.9004423022270203,
                0.675792932510376
            ]
        },
        {
            "name" : "Sun.002",
            "translation" : [
                -2.6053175926208496,
                6.135679244995117,
                0
            ]
        },
        {
            "name" : "Point.001",
            "translation" : [
                0,
                3.186581611633301,
                -5.690605163574219
            ]
        },
        {
            "name" : "Point.002",
            "translation" : [
                -2.074497699737549,
                3.186581611633301,
                8.481520652770996
            ]
        }
    ],
    "materials" : [
        {
            "doubleSided" : true,
            "name" : "Light Blue",
            "pbrMetallicRoughness" : {
                "baseColorFactor" : [
                    0.03744685649871826,
                    0.035846047103405,
                    0.03704282268881798,
                    1
                ],
                "metallicFactor" : 0,
                "roughnessFactor" : 0.5
            }
        },
        {
            "doubleSided" : true,
            "name" : "Deeper Blue",
            "pbrMetallicRoughness" : {
                "baseColorFactor" : [
                    0.21134352684020996,
                    0.18325552344322205,
                    0.2165183275938034,
                    1
                ],
                "metallicFactor" : 0,
                "roughnessFactor" : 0.5
            }
        },
        {
            "doubleSided" : true,
            "name" : "Cyan",
            "pbrMetallicRoughness" : {
                "baseColorFactor" : [
                    0.9462027549743652,
                    0.9161273241043091,
                    1,
                    1
                ],
                "metallicFactor" : 0,
                "roughnessFactor" : 0.5
            }
        },
        {
            "doubleSided" : true,
            "name" : "Blue",
            "pbrMetallicRoughness" : {
                "baseColorFactor" : [
                    0.017641963437199593,
                    0.02121901512145996,
                    0.029556848108768463,
                    1
                ],
                "metallicFactor" : 0,
                "roughnessFactor" : 0.4000000059604645
            }
        }
    ],
    "meshes" : [
        {
            "name" : "Cube",
            "primitives" : [
                {
                    "attributes" : {
                        "POSITION" : 0,
                        "NORMAL" : 1,
                        "TEXCOORD_0" : 2
                    },
                    "indices" : 3,
                    "material" : 0
                }
            ]
        },
        {
            "name" : "Cube.001",
            "primitives" : [
                {
                    "attributes" : {
                        "POSITION" : 4,
                        "NORMAL" : 5,
                        "TEXCOORD_0" : 6
                    },
                    "indices" : 7,
                    "material" : 1
                }
            ]
        },
        {
            "name" : "Cube.002",
            "primitives" : [
                {
                    "attributes" : {
                        "POSITION" : 8,
                        "NORMAL" : 9,
                        "TEXCOORD_0" : 10
                    },
                    "indices" : 3,
                    "material" : 2
                }
            ]
        },
        {
            "name" : "Cube.003",
            "primitives" : [
                {
                    "attributes" : {
                        "POSITION" : 11,
                        "NORMAL" : 12,
                        "TEXCOORD_0" : 13
                    },
                    "indices" : 3,
                    "material" : 1
                }
            ]
        },
        {
            "name" : "Cube.004",
            "primitives" : [
                {
                    "attributes" : {
                        "POSITION" : 14,
                        "NORMAL" : 15,
                        "TEXCOORD_0" : 16
                    },
                    "indices" : 3,
                    "material" : 2
                }
            ]
        },
        {
            "name" : "Cube.006",
            "primitives" : [
                {
                    "attributes" : {
                        "POSITION" : 17,
                        "NORMAL" : 18,
                        "TEXCOORD_0" : 19
                    },
                    "indices" : 3,
                    "material" : 0
                }
            ]
        },
        {
            "name" : "Cube.007",
            "primitives" : [
                {
                    "attributes" : {
                        "POSITION" : 20,
                        "NORMAL" : 21,
                        "TEXCOORD_0" : 22
                    },
                    "indices" : 3,
                    "material" : 3
                }
            ]
        },
        {
            "name" : "Cube.008",
            "primitives" : [
                {
                    "attributes" : {
                        "POSITION" : 23,
                        "NORMAL" : 24,
                        "TEXCOORD_0" : 25
                    },
                    "indices" : 3,
                    "material" : 3
                }
            ]
        }
    ],
    "accessors" : [
        {
            "bufferView" : 0,
            "componentType" : 5126,
            "count" : 24,
            "max" : [
                1,
                1,
                1
            ],
            "min" : [
                -1,
                -1,
                -1
            ],
            "type" : "VEC3"
        },
        {
            "bufferView" : 1,
            "componentType" : 5126,
            "count" : 24,
            "type" : "VEC3"
        },
        {
            "bufferView" : 2,
            "componentType" : 5126,
            "count" : 24,
            "type" : "VEC2"
        },
        {
            "bufferView" : 3,
            "componentType" : 5123,
            "count" : 36,
            "type" : "SCALAR"
        },
        {
            "bufferView" : 4,
            "componentType" : 5126,
            "count" : 22,
            "max" : [
                0.9999995231628418,
                1,
                1
            ],
            "min" : [
                -1,
                -1,
                -1
            ],
            "type" : "VEC3"
        },
        {
            "bufferView" : 5,
            "componentType" : 5126,
            "count" : 22,
            "type" : "VEC3"
        },
        {
            "bufferView" : 6,
            "componentType" : 5126,
            "count" : 22,
            "type" : "VEC2"
        },
        {
            "bufferView" : 7,
            "componentType" : 5123,
            "count" : 36,
            "type" : "SCALAR"
        },
        {
            "bufferView" : 8,
            "componentType" : 5126,
            "count" : 24,
            "max" : [
                1,
                2.286917209625244,
                1
            ],
            "min" : [
                -1,
                -1,
                -1
            ],
            "type" : "VEC3"
        },
        {
            "bufferView" : 9,
            "componentType" : 5126,
            "count" : 24,
            "type" : "VEC3"
        },
        {
            "bufferView" : 10,
            "componentType" : 5126,
            "count" : 24,
            "type" : "VEC2"
        },
        {
            "bufferView" : 11,
            "componentType" : 5126,
            "count" : 24,
            "max" : [
                1,
                1,
                1
            ],
            "min" : [
                -1,
                -1,
                -1
            ],
            "type" : "VEC3"
        },
        {
            "bufferView" : 12,
            "componentType" : 5126,
            "count" : 24,
            "type" : "VEC3"
        },
        {
            "bufferView" : 13,
            "componentType" : 5126,
            "count" : 24,
            "type" : "VEC2"
        },
        {
            "bufferView" : 14,
            "componentType" : 5126,
            "count" : 24,
            "max" : [
                1,
                1,
                1
            ],
            "min" : [
                -1,
                -1,
                -1
            ],
            "type" : "VEC3"
        },
        {
            "bufferView" : 15,
            "componentType" : 5126,
            "count" : 24,
            "type" : "VEC3"
        },
        {
            "bufferView" : 16,
            "componentType" : 5126,
            "count" : 24,
            "type" : "VEC2"
        },
        {
            "bufferView" : 17,
            "componentType" : 5126,
            "count" : 24,
            "max" : [
                1,
                1,
                1
            ],
            "min" : [
                -1,
                -1,
                -1
            ],
            "type" : "VEC3"
        },
        {
            "bufferView" : 18,
            "componentType" : 5126,
            "count" : 24,
            "type" : "VEC3"
        },
        {
            "bufferView" : 19,
            "componentType" : 5126,
            "count" : 24,
            "type" : "VEC2"
        },
        {
            "bufferView" : 20,
            "componentType" : 5126,
            "count" : 24,
            "max" : [
                1,
                1,
                1
            ],
            "min" : [
                -1,
                -1,
                -1
            ],
            "type" : "VEC3"
        },
        {
            "bufferView" : 21,
            "componentType" : 5126,
            "count" : 24,
            "type" : "VEC3"
        },
        {
            "bufferView" : 22,
            "componentType" : 5126,
            "count" : 24,
            "type" : "VEC2"
        },
        {
            "bufferView" : 23,
            "componentType" : 5126,
            "count" : 24,
            "max" : [
                1,
                1,
                1
            ],
            "min" : [
                -1,
                -1,
                -1
            ],
            "type" : "VEC3"
        },
        {
            "bufferView" : 24,
            "componentType" : 5126,
            "count" : 24,
            "type" : "VEC3"
        },
        {
            "bufferView" : 25,
            "componentType" : 5126,
            "count" : 24,
            "type" : "VEC2"
        }
    ],
    "bufferViews" : [
        {
            "buffer" : 0,
            "byteLength" : 288,
            "byteOffset" : 0
        },
        {
            "buffer" : 0,
            "byteLength" : 288,
            "byteOffset" : 288
        },
        {
            "buffer" : 0,
            "byteLength" : 192,
            "byteOffset" : 576
        },
        {
            "buffer" : 0,
            "byteLength" : 72,
            "byteOffset" : 768
        },
        {
            "buffer" : 0,
            "byteLength" : 264,
            "byteOffset" : 840
        },
        {
            "buffer" : 0,
            "byteLength" : 264,
            "byteOffset" : 1104
        },
        {
            "buffer" : 0,
            "byteLength" : 176,
            "byteOffset" : 1368
        },
        {
            "buffer" : 0,
            "byteLength" : 72,
            "byteOffset" : 1544
        },
        {
            "buffer" : 0,
            "byteLength" : 288,
            "byteOffset" : 1616
        },
        {
            "buffer" : 0,
            "byteLength" : 288,
            "byteOffset" : 1904
        },
        {
            "buffer" : 0,
            "byteLength" : 192,
            "byteOffset" : 2192
        },
        {
            "buffer" : 0,
            "byteLength" : 288,
            "byteOffset" : 2384
        },
        {
            "buffer" : 0,
            "byteLength" : 288,
            "byteOffset" : 2672
        },
        {
            "buffer" : 0,
            "byteLength" : 192,
            "byteOffset" : 2960
        },
        {
            "buffer" : 0,
            "byteLength" : 288,
            "byteOffset" : 3152
        },
        {
            "buffer" : 0,
            "byteLength" : 288,
            "byteOffset" : 3440
        },
        {
            "buffer" : 0,
            "byteLength" : 192,
            "byteOffset" : 3728
        },
        {
            "buffer" : 0,
            "byteLength" : 288,
            "byteOffset" : 3920
        },
        {
            "buffer" : 0,
            "byteLength" : 288,
            "byteOffset" : 4208
        },
        {
            "buffer" : 0,
            "byteLength" : 192,
            "byteOffset" : 4496
        },
        {
            "buffer" : 0,
            "byteLength" : 288,
            "byteOffset" : 4688
        },
        {
            "buffer" : 0,
            "byteLength" : 288,
            "byteOffset" : 4976
        },
        {
            "buffer" : 0,
            "byteLength" : 192,
            "byteOffset" : 5264
        },
        {
            "buffer" : 0,
            "byteLength" : 288,
            "byteOffset" : 5456
        },
        {
            "buffer" : 0,
            "byteLength" : 288,
            "byteOffset" : 5744
        },
        {
            "buffer" : 0,
            "byteLength" : 192,
            "byteOffset" : 6032
        }
    ],
    "buffers" : [
        {
            "byteLength" : 6224,
            "uri" : "Neutral.bin"
        }
    ]
}
